. 
  
http://www.torrenting.com/        :     Greatest Movie Tracker on The Net!!!
 
http://www.Torrenting.com          :     Once & For all ;)


               www . Torrenting . Com 

(((((((((((((= Enjoy No RAR releases =))))))))))))))))))))


...................................NFO:....................................

.








































          
          
              
              
                    
                    
                    
                    

Assassination.Games.2011.DVDRip.Xvid.AC3-SiC

Poster:
[img]http://img171.imageshack.us/img171/2885/assassinationgames2011mz.jpg[/img]

IMDB Link:
http://www.imdb.com/title/tt1436568/

Description:
Rival assassins -- each of whom are masters of their respective weapons --
form an uneasy alliance in their mission to take down a DEA-backed drug cartel. 

MediaInfo:
General
Complete name                    : Assassination.Games.2011.DVDRip.Xvid.AC3-SiC.avi
Format                           : AVI
Format/Info                      : Audio Video Interleave
File size                        : 1.20 GiB
Duration                         : 1h 39mn
Overall bit rate                 : 1 715 Kbps

Video
ID                               : 0
Format                           : MPEG-4 Visual
Format profile                   : Advanced Simple@L5
Format settings, BVOP            : Yes
Format settings, QPel            : No
Format settings, GMC             : No warppoints
Format settings, Matrix          : Default (H.263)
Muxing mode                      : Packed bitstream
Codec ID                         : XVID
Codec ID/Hint                    : XviD
Duration                         : 1h 39mn
Bit rate                         : 1 323 Kbps
Width                            : 720 pixels
Height                           : 384 pixels
Display aspect ratio             : 1.875
Frame rate                       : 23.976 fps
Resolution                       : 8 bits
Colorimetry                      : 4:2:0
Scan type                        : Progressive
Bits/(Pixel*Frame)               : 0.200
Stream size                      : 945 MiB (77%)
Writing library                  : XviD 64

Audio
ID                               : 1
Format                           : AC-3
Format/Info                      : Audio Coding 3
Format_Settings_ModeExtension    : CM (complete main)
Codec ID                         : 2000
Duration                         : 1h 39mn
Bit rate mode                    : Constant
Bit rate                         : 384 Kbps
Channel(s)                       : 6 channels
Channel positions                : Front: L C R, Side: L R, LFE
Sampling rate                    : 48.0 KHz
Stream size                      : 274 MiB (22%)
Alignment                        : Aligned on interleaves
Interleave, duration             : 64 ms (1.53 video frames)
Interleave, preload duration     : 192 ms
Title                            : 6ch English

Screenshots:
[img]http://img819.imageshack.us/img819/5951/assassinationgames2011d.png[/img]
[img]http://img6.imageshack.us/img6/540/vlcsnap2011090722h51m59.png[/img]
[img]http://img42.imageshack.us/img42/9286/vlcsnap2011090722h52m13.png[/img]
[img]http://img198.imageshack.us/img198/5520/assassinationgames2011dw.png[/img]
[img]http://img220.imageshack.us/img220/5951/assassinationgames2011d.png[/img]
[img]http://img820.imageshack.us/img820/340/vlcsnap2011090723h02m24.png[/img]


Note :   N/A 

Source : Our Own

Enjoy!

Respects to CaptainHomey, Cyanide, CM8, Rx, THC, ELEKTRI4KA, 
Killerhz, PA, YeFsTe, BoxSlots, MrRep and everyone in the struggle...